<svg version="1.1" id="Layer_1" xmlns="http://www.w3.org/2000/svg" xmlns:xlink="http://www.w3.org/1999/xlink" x="0px" y="0px" width="100%" viewBox="0 0 512 512" enable-background="new 0 0 512 512" xml:space="preserve">
  <path fill="#FFFFFF" opacity="1.000000" stroke="none" d="
M459.789856,378.785278 
	C423.956787,433.883270 373.912018,468.202301 310.679199,483.617767 
	C288.359100,489.059143 265.506226,490.608459 242.759964,488.693573 
	C215.302048,486.382019 190.547195,476.045654 169.040192,458.552826 
	C151.180313,444.026459 137.558960,426.269409 128.276993,405.117981 
	C127.289200,402.867065 124.176186,400.738678 121.655640,400.095642 
	C96.160622,393.591217 74.095734,380.877136 55.936619,362.159332 
	C34.777885,340.349640 21.680319,314.155182 17.969063,283.695557 
	C14.615130,256.168640 17.934000,229.604568 30.028152,204.423645 
	C40.079147,183.496735 54.562153,166.192688 73.125816,152.288940 
	C83.841591,144.263062 95.536888,138.082336 108.050331,133.302673 
	C110.213058,132.476593 112.342941,130.146744 113.364029,127.981468 
	C119.629814,114.694489 127.138618,102.263527 136.392395,90.803146 
	C150.143646,73.772827 166.572159,60.000710 185.554703,49.250156 
	C204.228745,38.674324 224.135544,31.442396 245.302231,27.688650 
	C265.273865,24.146839 285.326904,24.362123 305.449615,25.892799 
	C327.361542,27.559582 348.385864,32.900414 368.678955,41.120564 
	C389.347870,49.492943 407.851227,61.359966 424.663177,76.052589 
	C451.998383,99.941856 470.646423,129.500870 483.004852,163.362320 
	C490.116150,182.846893 494.305664,202.922562 496.100494,223.555344 
	C498.968933,256.529358 496.723602,289.052338 486.801605,320.736511 
	C480.420471,341.113556 471.582520,360.469635 459.789856,378.785278 
M428.504211,104.002884 
	C414.768280,89.122444 399.478729,76.130394 381.665253,66.372147 
	C348.489136,48.198204 312.883057,40.800095 275.154144,41.857704 
	C248.179184,42.613865 222.843628,48.968868 199.084534,61.507442 
	C165.797989,79.073990 141.608246,105.185539 126.948395,139.922562 
	C125.180756,144.111023 122.550240,146.673431 118.276009,148.091537 
	C96.150116,155.432526 77.532684,167.895386 62.508766,185.868866 
	C37.762074,215.473877 29.052441,249.564392 35.750217,287.041473 
	C42.276073,323.556549 62.696632,351.330414 94.420700,370.463715 
	C102.124283,375.109863 110.730888,378.258698 119.793396,382.504089 
	C119.793396,379.558929 119.996574,378.227783 119.762230,376.978699 
	C117.174042,363.183319 116.333244,349.398407 117.833023,335.333466 
	C121.816063,297.980591 138.157684,267.356750 166.415054,242.796753 
	C168.866302,240.666245 171.390167,237.275009 171.673370,234.261978 
	C172.354858,227.011475 172.319687,219.565323 171.438187,212.336548 
	C170.725189,206.489517 177.003723,200.682327 183.101089,203.146561 
	C188.412018,205.292969 188.397598,209.990631 188.873611,214.331879 
	C189.278900,218.028168 188.957321,221.804169 188.957321,226.441605 
	C195.601913,223.699326 201.038147,221.346069 206.569031,219.241547 
	C208.178925,218.628967 210.152740,218.260666 211.797195,218.590546 
	C215.969116,219.427429 218.538284,222.141083 218.872620,226.500931 
	C219.287033,231.905136 215.501404,234.043549 211.307083,235.743988 
	C193.635040,242.908432 178.371353,253.372299 165.671722,267.753082 
	C140.361801,296.413422 129.636703,329.775543 135.380936,367.383331 
	C141.687820,408.674957 164.361435,439.338074 201.218704,458.950806 
	C220.172150,469.036438 240.661087,472.916016 262.306030,472.233490 
	C279.379364,471.695129 296.180359,469.785034 312.583832,465.484344 
	C359.851501,453.091675 399.329285,428.247528 430.335022,390.246094 
	C459.615906,354.358704 475.377319,313.032806 479.880371,267.196014 
	C480.306549,262.857819 479.937225,258.441467 479.937225,253.551498 
	C477.832001,254.079208 476.829315,254.162888 475.980072,254.568176 
	C458.778595,262.777466 440.707184,266.092041 421.752808,263.939758 
	C407.928558,262.369965 395.164703,258.005920 384.806519,248.242798 
	C380.345337,244.037918 379.880005,239.255249 383.189484,235.464462 
	C386.211700,232.002686 391.643768,232.103333 396.142609,235.549469 
	C398.639771,237.462372 401.171265,239.401718 403.920288,240.902328 
	C416.400269,247.714722 429.850830,248.848145 443.597687,246.754379 
	C455.526123,244.937546 467.003143,241.488098 476.710785,233.915237 
	C478.256042,232.709778 479.786713,230.094788 479.616058,228.293274 
	C477.683716,207.894958 473.796112,187.892136 466.741180,168.571121 
	C458.093170,144.887146 445.805450,123.373169 428.504211,104.002884 
z"/>
  <path fill="#FFFFFF" opacity="1.000000" stroke="none" d="
M391.955902,143.014053 
	C408.085388,143.902649 420.172180,153.128143 424.189301,167.275528 
	C425.685425,172.544662 423.908112,176.984741 419.693787,178.506058 
	C414.342957,180.437668 409.884918,178.775604 408.277039,172.945892 
	C404.690216,159.941040 387.335907,154.918747 378.048920,167.168777 
	C375.373993,170.697174 370.578644,171.000092 366.839386,168.218048 
	C363.419922,165.673920 361.833099,162.151337 364.047729,158.185455 
	C370.009979,147.508423 380.019379,143.852859 391.955902,143.014053 
z"/>
</svg>
